Fly_normalized_Motion_pl04
version=1
nRows=8
nColumns=43
inDegrees=yes
endheader
time		pelvis_tilt		pelvis_list		pelvis_rotation		pelvis_tx		pelvis_ty		pelvis_tz		hip_flexion_r		hip_adduction_r		hip_rotation_r		knee_angle_r		ankle_angle_r		subtalar_angle_r		mtp_angle_r		hip_flexion_l		hip_adduction_l		hip_rotation_l		knee_angle_l		ankle_angle_l		subtalar_angle_l		mtp_angle_l		lumbar_extension		lumbar_bending		lumbar_rotation		neck_flexion		neck_lateral_bending		neck_rotation		arm_flex_r		arm_add_r		arm_rot_r		elbow_flex_r		pro_sup_r		wrist_flex_r		wrist_dev_r		hand_finger_flex_r		arm_flex_l		arm_add_l		arm_rot_l		elbow_flex_l		pro_sup_l		wrist_flex_l		wrist_dev_l		hand_finger_flex_l		
2.674116		1.549954		-15.962487		92.400560		-0.002889		1.634427		1.158521		69.886398		-3.951311		-3.708070		-100.778291		-5.702582		7.182112		30.860479		60.777545		-11.734680		-0.742527		-105.107947		2.659331		-8.230798		19.815602		-29.887869		0.422578		1.359754		3.897387		6.719980		-0.647190		61.940662		-15.801582		10.744722		56.941053		109.301480		-1.871957		-8.761169		-31.340035		62.753293		-31.348433		15.358976		61.128155		119.483315		-6.515836		-2.488889		-24.126838		
2.678081		1.693865		-16.233000		92.615754		-0.003193		1.630662		1.151051		70.055273		-4.024547		-4.035982		-99.142813		-6.212950		7.568205		30.742257		61.390304		-11.657371		-0.702886		-103.777145		2.887675		-6.293375		19.258415		-29.549665		0.811143		0.450473		3.610857		6.229449		0.234099		59.983904		-14.480331		8.248746		56.762623		112.987636		-0.396689		-7.971562		-31.877913		59.073359		-34.003156		13.494469		63.853636		119.921788		-4.974390		-1.104800		-24.009798		
2.682045		1.707332		-16.010301		92.712227		-0.003815		1.627614		1.143636		69.718226		-4.133109		-4.173508		-97.476698		-6.339032		7.694549		30.738115		61.318189		-11.519269		-1.009787		-102.277117		2.656937		-6.157001		19.214296		-29.543713		0.948241		0.560131		3.486313		6.266826		0.111750		58.234108		-15.159430		7.927227		56.084788		113.026991		-0.430309		-7.793457		-31.958113		57.423518		-34.885103		13.731921		63.381516		119.951100		-4.799879		-1.030097		-23.976669		
2.686010		1.763807		-15.726731		92.840526		-0.003883		1.624655		1.135856		69.151806		-4.164699		-4.450159		-95.750339		-7.019303		7.984807		30.726391		61.178493		-11.474415		-1.188844		-100.755998		2.071043		-5.767432		19.117800		-29.698427		1.038916		0.539923		2.478102		6.451580		-0.267229		55.901451		-15.397428		6.577137		56.150571		113.163311		-0.788723		-7.721098		-32.320198		55.115086		-36.381555		13.603328		64.072243		119.867504		-4.703799		-1.225710		-24.015832		
2.689975		1.776717		-15.564790		92.923369		-0.004398		1.621174		1.128213		68.813559		-4.228392		-4.555724		-94.078682		-7.125814		8.051756		30.723683		61.056109		-11.301859		-1.420123		-99.147287		1.849999		-5.565034		19.082433		-29.594660		1.156189		0.690907		2.462060		6.487191		-0.319671		54.036075		-16.100541		6.193690		55.449697		113.228171		-0.822846		-7.455641		-32.398434		53.316921		-37.267318		13.814609		63.722291		119.841793		-4.535343		-1.131933		-23.967218		
2.693939		1.833564		-15.349604		93.062030		-0.004495		1.617628		1.120255		68.259583		-4.246246		-4.776886		-92.352157		-7.838784		8.195892		30.715441		60.911739		-11.258928		-1.580887		-97.565251		1.305836		-5.072052		19.010047		-29.683630		1.237307		0.664009		1.629939		6.720279		-0.576426		51.557543		-16.445313		4.894177		55.790054		113.442624		-1.130423		-7.180518		-32.738971		50.731133		-38.826740		13.506372		64.730276		119.609359		-4.516261		-1.221484		-23.969459		
2.697904		2.086388		-15.490470		93.140797		-0.004635		1.613145		1.112436		68.091094		-4.077458		-5.038311		-90.577153		-8.485234		7.850695		30.665245		61.132624		-11.313334		-1.570622		-95.979142		1.024486		-4.278261		18.842249		-29.573715		1.630718		0.121740		2.398927		6.439476		0.124141		49.580125		-15.897565		3.307691		56.372266		116.052255		0.235327		-5.172661		-33.591327		46.441490		-41.041132		11.124454		67.394782		118.555998		-3.991879		0.273402		-23.746835		
2.701869		2.109409		-15.263413		93.273049		-0.004957		1.609293		1.104606		67.487736		-4.155769		-5.237807		-88.799747		-8.948364		8.037262		30.658490		60.835547		-11.195056		-1.831473		-94.264636		0.485147		-4.151516		18.772592		-29.565377		1.707711		0.238383		1.674293		6.609794		-0.147942		47.369758		-16.562328		2.587701		56.092481		116.107998		0.105207		-5.045160		-33.820213		44.280978		-42.202644		11.261645		67.587733		118.614844		-3.938210		0.191317		-23.751501		
